<?xml version="1.0" encoding="utf-8"?>
<!-- Generator: Adobe Illustrator 24.0.1, SVG Export Plug-In . SVG Version: 6.00 Build 0)  -->
<svg version="1.1" id="waves" xmlns="http://www.w3.org/2000/svg" xmlns:xlink="http://www.w3.org/1999/xlink" x="0px" y="0px"
	 viewBox="0 0 700 125" enable-background="new 0 0 700 125" xml:space="preserve">
<path opacity="0.7" fill="#5BA374" d="M597,65.1c-75.6-24.4-161-16.7-241.2-4.6c-80.1,12.1-161.5,28.1-242.3,19.1
	c29.3,20.8,59.8,36.1,92.5,45.3h161.6c33-7.8,68.2-19.9,106-36.8c93.1-41.1,181.1,21.4,181.1,21.4c7.9,5.1,15.2,10.2,22,15.4H688
	C666.4,98.7,633.5,76.9,597,65.1z"/>
<path opacity="0.7" fill="#6B3E82" d="M113.6,79.7c-7.2-5.2-14.4-10.6-21.5-16.5C72.6,47.2,41.3,25.4,0,3.8V51
	C35.9,64.9,73.4,75.2,113.6,79.7C113.6,79.7,113.6,79.7,113.6,79.7z"/>
<path opacity="0.7" fill="#5BA374" d="M473.7,88.2c-37.8,16.8-72.9,29-106,36.8h309.1c-6.7-5.2-14-10.3-22-15.4
	C654.8,109.6,566.8,47.1,473.7,88.2z"/>
<path opacity="0.7" fill="#6B3E82" d="M473.7,88.2c-37.8,16.8-72.9,29-106,36.8h309.1c-6.7-5.2-14-10.3-22-15.4
	C654.8,109.6,566.8,47.1,473.7,88.2z"/>
<path opacity="0.7" fill="#5BA374" d="M113.5,79.7C73.4,75.2,35.9,64.9,0,51v74h206.1C173.4,115.8,142.8,100.5,113.5,79.7
	C113.6,79.7,113.6,79.7,113.5,79.7z"/>
<path opacity="0.7" fill="#6B3E82" d="M113.5,79.7C73.4,75.2,35.9,64.9,0,51v74h206.1C173.4,115.8,142.8,100.5,113.5,79.7
	C113.6,79.7,113.6,79.7,113.5,79.7z"/>
</svg>
